<svg id="图层_2" data-name="图层 2" xmlns="http://www.w3.org/2000/svg" viewBox="0 0 18.88 18.9"><defs><style>.cls-1{fill:#23b293;}</style></defs><title>未标题-3</title><path class="cls-1" d="M10,19.45a9.44,9.44,0,1,1,6.7-2.77.64.64,0,0,1-.89,0,.62.62,0,0,1,0-.89A8.18,8.18,0,0,0,10,1.82,8.1,8.1,0,0,0,4.21,4.21a8.19,8.19,0,0,0,8.37,13.56A.62.62,0,1,1,13,19a9.48,9.48,0,0,1-3,.5Zm0,0" transform="translate(-0.56 -0.55)"/><path class="cls-1" d="M9.34,15.07a.61.61,0,0,1-.44-.19L5.11,11.1a.62.62,0,0,1,0-.89l5.11-5.1a.62.62,0,0,1,.89,0l3.78,3.78a.62.62,0,0,1,0,.89l-5.11,5.1a.61.61,0,0,1-.44.19ZM6.45,10.66l2.89,2.89,4.21-4.21L10.66,6.45Zm0,0" transform="translate(-0.56 -0.55)"/><path class="cls-1" d="M16.15,16.94a.61.61,0,0,1-.44-.19l-4.35-4.33a.63.63,0,0,1,.89-.89l4.35,4.34a.63.63,0,0,1-.45,1.07Zm0,0" transform="translate(-0.56 -0.55)"/></svg>