<svg id="图层_4" data-name="图层 4" xmlns="http://www.w3.org/2000/svg" viewBox="0 0 18.77 18.77"><defs><style>.cls-1{fill:#23b293;}</style></defs><title>未标题-3</title><path class="cls-1" d="M19.26,11.57h0a.61.61,0,0,1-.4.49.63.63,0,0,1-.84-.7v0A8.3,8.3,0,0,0,18.13,10,8.13,8.13,0,1,0,10,18.13h0a.63.63,0,0,1,0,1.26h0A9.39,9.39,0,1,1,19.39,10a10.29,10.29,0,0,1-.13,1.57ZM13.78,10a.62.62,0,0,1-.14.39l-3.11,5.39a.63.63,0,0,1-1.09,0,.64.64,0,0,1,0-.63l2.61-4.52H6.8a.64.64,0,0,1-.53-.38.64.64,0,0,1,.09-.65l3.1-5.37a.63.63,0,0,1,1.1,0,.64.64,0,0,1,0,.63L8,9.37h5.2a.63.63,0,0,1,.63.63ZM14,16.19a.63.63,0,0,1,.63.63v1.93a.63.63,0,0,1-.63.63.63.63,0,0,1-.63-.63V16.82a.64.64,0,0,1,.63-.63Zm2.4-2.73a.63.63,0,0,1,.63.63v4.66a.63.63,0,0,1-1.26,0V14.09a.63.63,0,0,1,.63-.63Zm2.39,1a.63.63,0,0,1,.63.63v3.65a.63.63,0,0,1-1.26,0V15.1a.63.63,0,0,1,.63-.63Zm0,0" transform="translate(-0.61 -0.61)"/></svg>