<svg id="图层_1" data-name="图层 1" xmlns="http://www.w3.org/2000/svg" viewBox="0 0 19.86 18.18"><defs><style>.cls-1{fill:#23b293;}</style></defs><title>未标题-3</title><path class="cls-1" d="M19.43,9.65l-2.84-3a.55.55,0,0,0-.72,0,.6.6,0,0,0,0,.76l2.84,3a1.05,1.05,0,0,1,.13.91c0,.09-.18.57-.58.57H16.9c-.27,0-.31-.1-.31.19v3.79a1.89,1.89,0,0,1-1.54,2H12.39L7.2,18H5a1.92,1.92,0,0,1-1.44-2v-3.8c0-.28-.09-.19-.41-.19H1.79c-.41,0-.54-.47-.59-.57a.82.82,0,0,1,.14-.8L9.55,1.81A.6.6,0,0,1,10,1.58a.53.53,0,0,1,.45.19L13.61,5a.53.53,0,0,0,.72,0,.6.6,0,0,0,0-.76L11.17,1.2C10.86.86,10.45.91,10,.91s-.86-.05-1.17.33L.57,9.79a2,2,0,0,0-.36,2A1.78,1.78,0,0,0,1.74,13h.73v2.89c0,1.61,1,3.18,2.48,3.18h10.1c1.49,0,2.58-1.57,2.58-3.18V13h.63a1.74,1.74,0,0,0,1.53-1.29,2,2,0,0,0-.36-2.08Z" transform="translate(-0.07 -0.91)"/></svg>