<?xml version="1.0" standalone="no"?><!DOCTYPE svg PUBLIC "-//W3C//DTD SVG 1.1//EN" "http://www.w3.org/Graphics/SVG/1.1/DTD/svg11.dtd"><svg t="1531881423698" class="icon" style="" viewBox="0 0 1024 1024" version="1.1" xmlns="http://www.w3.org/2000/svg" p-id="5003" xmlns:xlink="http://www.w3.org/1999/xlink" width="64" height="64"><defs><style type="text/css"></style></defs><path d="M384 896C384 825.307552 440.814697 768 512 768 582.692448 768 640 824.814694 640 896 640 966.692448 583.185303 1024 512 1024 441.307552 1024 384 967.185306 384 896ZM384 512C384 441.307552 440.814697 384 512 384 582.692448 384 640 440.814697 640 512 640 582.692448 583.185303 640 512 640 441.307552 640 384 583.185303 384 512ZM384 128C384 57.307552 440.814697 0 512 0 582.692448 0 640 56.814697 640 128 640 198.692448 583.185303 256 512 256 441.307552 256 384 199.185303 384 128Z" p-id="5004" fill="#ffffff"></path></svg>