<svg id="图层_8" data-name="图层 8" xmlns="http://www.w3.org/2000/svg" viewBox="0 0 19.53 17.23"><defs><style>.cls-1{fill:#23b293;}</style></defs><title>未标题-3</title><path class="cls-1" d="M9.94,18.62a.5.5,0,0,1-.26-.08L.48,12.41a.59.59,0,0,1-.17-.76A.46.46,0,0,1,1,11.47l9,6,9.07-6a.48.48,0,0,1,.68.19.58.58,0,0,1-.17.75L10.2,18.54a.5.5,0,0,1-.26.08Zm0,0" transform="translate(-0.23 -1.38)"/><path class="cls-1" d="M10,14.88a.5.5,0,0,1-.26-.08L3,10.34a.55.55,0,0,1-.24-.47V1.93a.52.52,0,0,1,.49-.55H16.86a.52.52,0,0,1,.5.55V9.78a.56.56,0,0,1-.24.47L10.29,14.8a.5.5,0,0,1-.26.08ZM3.79,9.56,10,13.7l6.34-4.22v-7H3.79Zm0,0" transform="translate(-0.23 -1.38)"/><path class="cls-1" d="M13.45,5.77H8.69a.52.52,0,0,1-.49-.55.52.52,0,0,1,.49-.54h4.76a.52.52,0,0,1,.5.54.52.52,0,0,1-.5.55Zm0,2.93H8.69a.55.55,0,0,1,0-1.09h4.76a.55.55,0,0,1,0,1.09Zm0,0" transform="translate(-0.23 -1.38)"/><path class="cls-1" d="M5.76,5.33A.64.64,0,1,0,7,5.33a.64.64,0,1,0-1.27,0Zm0,0" transform="translate(-0.23 -1.38)"/><path class="cls-1" d="M5.82,8.21a.67.67,0,0,0,.63.7.7.7,0,0,0,0-1.4.66.66,0,0,0-.63.7Zm0,0" transform="translate(-0.23 -1.38)"/></svg>