<svg id="图层_6" data-name="图层 6" xmlns="http://www.w3.org/2000/svg" viewBox="0 0 18.99 18.99"><defs><style>.cls-1{fill:#23b293;}</style></defs><title>未标题-3</title><path class="cls-1" d="M18.74,19.5H1.26a.76.76,0,0,1-.76-.76v-.21a.76.76,0,0,1,.76-.75H18.74a.76.76,0,0,1,.76.75v.21a.76.76,0,0,1-.76.76Zm0,0" transform="translate(-0.5 -0.5)"/><path class="cls-1" d="M15.1,1.26V18.39a.76.76,0,0,1-.75.75h-.21a.76.76,0,0,1-.75-.75V1.26A.76.76,0,0,1,14.14.5h.21a.76.76,0,0,1,.75.76Zm0,0" transform="translate(-0.5 -0.5)"/><path class="cls-1" d="M10.69,6.94V18.39a.76.76,0,0,1-.75.75H9.73A.76.76,0,0,1,9,18.39V6.94a.76.76,0,0,1,.75-.75h.21a.76.76,0,0,1,.75.75Zm0,0" transform="translate(-0.5 -0.5)"/><path class="cls-1" d="M6,11.3v7.09a.76.76,0,0,1-.76.75H5a.76.76,0,0,1-.75-.75V11.3A.76.76,0,0,1,5,10.55H5.2A.76.76,0,0,1,6,11.3Zm0,0" transform="translate(-0.5 -0.5)"/></svg>