<svg id="图层_9" data-name="图层 9" xmlns="http://www.w3.org/2000/svg" viewBox="0 0 19.64 18.86"><defs><style>.cls-1{fill:#23b293;}</style></defs><title>未标题-3</title><path class="cls-1" d="M9.92,7.17a2.7,2.7,0,1,1-2.7,2.7,2.7,2.7,0,0,1,2.7-2.7m0-1.2a3.9,3.9,0,1,0,3.9,3.9A3.9,3.9,0,0,0,9.92,6m9.64,6.28a9.87,9.87,0,0,0,0-4.5.61.61,0,0,0-.72-.45.62.62,0,0,0-.45.73,8.55,8.55,0,0,1,0,3.94.62.62,0,0,0,.45.73.61.61,0,0,0,.72-.45Zm-.71.46H19a.61.61,0,0,0,.63-.57.62.62,0,0,0-.58-.63h-.15a.6.6,0,0,0,0,1.2Zm-2,3.61a2.38,2.38,0,0,1-.37-1.27,2.33,2.33,0,0,1,2.33-2.34.6.6,0,1,0,0-1.2,3.54,3.54,0,0,0-3,5.46.6.6,0,1,0,1-.65Zm-4.06,3.09a9.84,9.84,0,0,0,4-2.33.61.61,0,0,0,0-.85.6.6,0,0,0-.85,0,8.6,8.6,0,0,1-3.48,2.05.6.6,0,0,0-.41.74.61.61,0,0,0,.75.41Zm-4.95-.32a2.34,2.34,0,0,1,4.24,0,.6.6,0,0,0,1.08-.51,3.53,3.53,0,0,0-6.4,0,.6.6,0,0,0,1.08.51Zm-4.66-2a9.87,9.87,0,0,0,4,2.31A.61.61,0,0,0,7.92,19a.6.6,0,0,0-.41-.74,8.71,8.71,0,0,1-3.46-2,.6.6,0,0,0-.85,0,.59.59,0,0,0,0,.84Zm-2-4.39a2.34,2.34,0,0,1,2.34,2.34,2.36,2.36,0,0,1-.39,1.29.6.6,0,0,0,.16.83A.61.61,0,0,0,4.14,17a3.52,3.52,0,0,0,.59-1.95,3.54,3.54,0,0,0-3.54-3.54.6.6,0,0,0,0,1.2Zm-.13,0h.13a.6.6,0,0,0,0-1.2H1a.61.61,0,0,0-.57.64.6.6,0,0,0,.64.56Zm-.62-5a9.87,9.87,0,0,0,0,4.5.61.61,0,0,0,.72.45A.61.61,0,0,0,1.61,12a8.64,8.64,0,0,1,0-4,.61.61,0,0,0-.45-.72.61.61,0,0,0-.72.45Zm.75-.46H1.06a.6.6,0,0,0-.64.56A.61.61,0,0,0,1,8.49h.2a.6.6,0,0,0,0-1.2Zm2-3.63A2.36,2.36,0,0,1,3.53,5,2.33,2.33,0,0,1,1.19,7.29a.6.6,0,1,0,0,1.2A3.53,3.53,0,0,0,4.14,3a.61.61,0,0,0-.84-.17.6.6,0,0,0-.16.83Zm4-3.07A9.87,9.87,0,0,0,3.22,2.9a.59.59,0,0,0,0,.84.6.6,0,0,0,.85,0,8.71,8.71,0,0,1,3.46-2A.6.6,0,0,0,7.92,1,.61.61,0,0,0,7.17.59Zm4.95.32A2.35,2.35,0,0,1,10,2.26,2.35,2.35,0,0,1,7.88.91a.6.6,0,0,0-1.08.51,3.55,3.55,0,0,0,3.2,2,3.55,3.55,0,0,0,3.2-2A.6.6,0,0,0,12.12.91Zm4.69,2a9.84,9.84,0,0,0-4-2.33.61.61,0,0,0-.75.41.6.6,0,0,0,.41.74A8.6,8.6,0,0,1,16,3.79a.6.6,0,0,0,.85,0,.61.61,0,0,0,0-.85Zm2,4.37A2.33,2.33,0,0,1,16.52,5a2.39,2.39,0,0,1,.37-1.28.6.6,0,1,0-1-.65,3.54,3.54,0,0,0,3,5.46.6.6,0,1,0,0-1.2Zm.1,0h-.1a.6.6,0,0,0,0,1.2H19a.62.62,0,0,0,.58-.63A.61.61,0,0,0,19,7.29Zm0,0" transform="translate(-0.18 -0.57)"/></svg>