<svg id="图层_9" data-name="图层 9" xmlns="http://www.w3.org/2000/svg" viewBox="0 0 18.96 18.97"><defs><style>.cls-1{fill:#23b293;}</style></defs><title>未标题-3</title><path class="cls-1" d="M19.47,18.66A9.47,9.47,0,0,0,13,10.47a5.43,5.43,0,1,0-5.9,0A9.44,9.44,0,0,0,.53,18.66a.8.8,0,0,0,0,.22.68.68,0,0,0,.67.61.67.67,0,0,0,.67-.68,8.16,8.16,0,0,1,16.26,0,.68.68,0,0,0,.68.68.67.67,0,0,0,.66-.61.8.8,0,0,0,0-.22ZM5.92,5.93A4.08,4.08,0,1,1,10,10,4.07,4.07,0,0,1,5.92,5.93Zm0,0" transform="translate(-0.52 -0.51)"/></svg>