<svg id="图层_5" data-name="图层 5" xmlns="http://www.w3.org/2000/svg" viewBox="0 0 18.86 18.86"><defs><style>.cls-1{fill:#23b293;}</style></defs><title>未标题-3</title><path class="cls-1" d="M5.28,6.64h9.44A.68.68,0,0,0,15.39,6a.67.67,0,0,0-.67-.67H5.28A.67.67,0,0,0,4.61,6a.68.68,0,0,0,.67.68Zm9.44,2.68H5.28a.68.68,0,0,0,0,1.35h9.44a.68.68,0,0,0,0-1.35Zm0,4H5.28a.68.68,0,0,0-.67.68.67.67,0,0,0,.67.67h9.44a.67.67,0,0,0,.67-.67.68.68,0,0,0-.67-.68ZM8,2.59H11.4a1,1,0,0,0,0-2H8a1,1,0,1,0,0,2Zm8.7-1.35h-.68a.68.68,0,0,0,0,1.35h.68a1.35,1.35,0,0,1,1.35,1.35v12.8a1.36,1.36,0,0,1-1.35,1.35H3.26a1.36,1.36,0,0,1-1.35-1.35V3.94A1.35,1.35,0,0,1,3.26,2.59h.68a.68.68,0,0,0,0-1.35H3.26A2.69,2.69,0,0,0,.57,3.94v12.8a2.68,2.68,0,0,0,2.69,2.69H16.74a2.68,2.68,0,0,0,2.69-2.69V3.94a2.69,2.69,0,0,0-2.69-2.7Zm0,0" transform="translate(-0.57 -0.57)"/></svg>