<svg id="图层_10" data-name="图层 10" xmlns="http://www.w3.org/2000/svg" viewBox="0 0 17.19 19.27"><defs><style>.cls-1{fill:#23b293;}</style></defs><title>未标题-3</title><path class="cls-1" d="M10,1.57a1.16,1.16,0,0,1,.69.22,1.14,1.14,0,0,1,.43.56l.2.54.56.18a6.24,6.24,0,0,1,1.66.86A6,6,0,0,1,16,8.8V14l.2.3L17.39,16H12.54l-.28.8A2.45,2.45,0,0,1,11.39,18a2.37,2.37,0,0,1-2.78,0,2.45,2.45,0,0,1-.87-1.16L7.46,16H2.61l1.17-1.74L4,14V8.8A6,6,0,0,1,6.46,3.93a6.24,6.24,0,0,1,1.66-.86l.56-.18.2-.54a1.14,1.14,0,0,1,.43-.56A1.16,1.16,0,0,1,10,1.57M10,.36A2.41,2.41,0,0,0,7.75,1.93a7.23,7.23,0,0,0-5,6.87v4.81L1.61,15.35a1.21,1.21,0,0,0,1,1.88h4a3.59,3.59,0,0,0,6.78,0h4a1.21,1.21,0,0,0,1-1.88l-1.16-1.74V8.8a7.23,7.23,0,0,0-5-6.87A2.41,2.41,0,0,0,10,.36Zm0,0" transform="translate(-1.41 -0.36)"/><rect class="cls-1" x="4.98" y="15.66" width="7.23" height="1.2"/></svg>